<?xml version="1.0" encoding="utf-8"?>
<!-- Generator: Adobe Illustrator 21.0.2, SVG Export Plug-In . SVG Version: 6.00 Build 0)  -->
<svg version="1.1" id="Layer_1" xmlns="http://www.w3.org/2000/svg" xmlns:xlink="http://www.w3.org/1999/xlink" x="0px" y="0px"
	 width="512px" height="323.9px" viewBox="0 0 512 323.9" style="enable-background:new 0 0 512 323.9;" xml:space="preserve">
<style type="text/css">
	.st0{fill:#FFFFFF;}
</style>
<g>
	<g>
		<path class="st0" d="M476.2,137.3l-13.3-53c3.6-0.8,6.3-4,6.3-7.8v-8.6c0-18.6-15.1-33.7-33.7-33.7h-60.4V16.6
			c0-9.1-7.4-16.6-16.6-16.6H50.8c-9.1,0-16.6,7.4-16.6,16.6v145.4c0,4.4,3.6,8,8,8c4.4,0,8-3.6,8-8V16.6c0-0.3,0.2-0.5,0.5-0.5
			h307.8c0.3,0,0.5,0.2,0.5,0.5v145.4c0,4.4,3.6,8,8,8c4.4,0,8-3.6,8-8v-9.1h94.6c0,0,0,0,0,0c0,0,0,0,0,0
			c11.6,0,21.5,7.6,24.9,18.2h-24.9c-4.4,0-8,3.6-8,8v17.1c0,13.9,11.3,25.1,25.1,25.1h9.1v35.3h-21c-6.9-19.9-25.8-34.2-48-34.2
			s-41.1,14.3-48,34.2h-3.9v-60.4c0-4.4-3.6-8-8-8c-4.4,0-8,3.6-8,8v60.4H192.8c-6.9-19.9-25.8-34.2-48-34.2s-41.1,14.3-48,34.2
			H50.8c-0.3,0-0.5-0.2-0.5-0.5v-17.6H85c4.4,0,8-3.6,8-8s-3.6-8-8-8H8c-4.4,0-8,3.6-8,8s3.6,8,8,8h26.2V256
			c0,9.1,7.4,16.6,16.6,16.6h43.3c0,0.2,0,0.4,0,0.5c0,28,22.8,50.8,50.8,50.8s50.8-22.8,50.8-50.8c0-0.2,0-0.4,0-0.5h180.7
			c0,0.2,0,0.4,0,0.5c0,28,22.8,50.8,50.8,50.8s50.8-22.8,50.8-50.8c0-0.2,0-0.4,0-0.5H504c4.4,0,8-3.6,8-8V179
			C512,157.9,496.4,140.4,476.2,137.3z M375.2,50.2h60.4c9.7,0,17.6,7.9,17.6,17.6v0.5h-78V50.2z M375.2,136.8V84.4h71.2l13.1,52.4
			L375.2,136.8L375.2,136.8z M144.8,307.8c-19.2,0-34.7-15.6-34.7-34.7s15.6-34.7,34.7-34.7s34.7,15.6,34.7,34.7
			S164,307.8,144.8,307.8z M427,307.8c-19.2,0-34.7-15.6-34.7-34.7s15.6-34.7,34.7-34.7c19.2,0,34.7,15.6,34.7,34.7
			S446.2,307.8,427,307.8z M496,205.2h-9.1c-5,0-9.1-4.1-9.1-9.1v-9.1H496L496,205.2L496,205.2z"/>
	</g>
</g>
<g>
	<g>
		<path class="st0" d="M144.8,256.5c-9.1,0-16.6,7.4-16.6,16.6s7.4,16.6,16.6,16.6c9.1,0,16.6-7.4,16.6-16.6
			C161.4,264,154,256.5,144.8,256.5z"/>
	</g>
</g>
<g>
	<g>
		<path class="st0" d="M427,256.5c-9.1,0-16.6,7.4-16.6,16.6s7.4,16.6,16.6,16.6s16.6-7.4,16.6-16.6S436.2,256.5,427,256.5z"/>
	</g>
</g>
<g>
	<g>
		<path class="st0" d="M333,222.3H213.2c-4.4,0-8,3.6-8,8s3.6,8,8,8H333c4.4,0,8-3.6,8-8S337.4,222.3,333,222.3z"/>
	</g>
</g>
<g>
	<g>
		<path class="st0" d="M127.7,188.1H25.1c-4.4,0-8,3.6-8,8s3.6,8,8,8h102.6c4.4,0,8-3.6,8-8S132.2,188.1,127.7,188.1z"/>
	</g>
</g>
<g>
	<g>
		<path class="st0" d="M278.8,79.3c-3.1-3.1-8.2-3.1-11.3,0l-71.3,71.3l-37.1-37.1c-3.1-3.1-8.2-3.1-11.3,0c-3.1,3.1-3.1,8.2,0,11.3
			l42.8,42.8c1.6,1.6,3.6,2.3,5.7,2.3s4.1-0.8,5.7-2.3l77-77C281.9,87.5,281.9,82.4,278.8,79.3z"/>
	</g>
</g>
</svg>
