<?xml version="1.0" encoding="utf-8"?>
<!-- Generator: Adobe Illustrator 21.0.2, SVG Export Plug-In . SVG Version: 6.00 Build 0)  -->
<svg version="1.1" id="Layer_1" xmlns="http://www.w3.org/2000/svg" xmlns:xlink="http://www.w3.org/1999/xlink" x="0px" y="0px"
	 width="512px" height="512px" viewBox="0 0 512 512" style="enable-background:new 0 0 512 512;" xml:space="preserve">
<style type="text/css">
	.st0{fill:#FFFFFF;}
</style>
<path class="st0" d="M456.9,0H262.6c-4,0-7.8,1.6-10.6,4.4L16.1,240.2c-21.5,21.5-21.5,56.5,0,77.9l177.7,177.7
	c10.4,10.4,24.2,16.1,39,16.1h0c14.8,0,28.6-5.7,39-16.1L507.6,260c2.8-2.8,4.4-6.6,4.4-10.6l0-194.3C512,24.7,487.3,0,456.9,0z
	 M482,243.2L250.5,474.7c-4.7,4.7-11,7.3-17.8,7.3c-6.7,0-13-2.6-17.8-7.3L37.3,297c-9.8-9.8-9.8-25.7,0-35.5L268.8,30h188.1
	c13.8,0,25.1,11.3,25.1,25.1L482,243.2z"/>
<path class="st0" d="M379.8,85.1c-12.6,0-24.4,4.9-33.3,13.8c-8.9,8.9-13.8,20.7-13.8,33.3s4.9,24.4,13.8,33.3s20.7,13.8,33.3,13.8
	c12.6,0,24.4-4.9,33.3-13.8s13.8-20.7,13.8-33.3s-4.9-24.4-13.8-33.3C404.2,90,392.4,85.1,379.8,85.1z M391.9,144.3
	c-3.2,3.2-7.5,5-12.1,5c-4.6,0-8.9-1.8-12.1-5c-3.2-3.2-5-7.5-5-12.1s1.8-8.9,5-12.1c3.2-3.2,7.5-5,12.1-5s8.9,1.8,12.1,5
	c3.2,3.2,5,7.5,5,12.1S395.1,141.1,391.9,144.3z"/>
</svg>
